# xmcd
#
# Track frame offsets: 
#        150
#        15556
#        38383
#        62821
#        81015
#        100032
#        115513
#        128474
#        157997
#        172366
#        184631
#        204652
#        231641
#        245359
#        262638
#        283507
#        298906
#        311385
#        329698
#
# Disc length: 4573 seconds
#
# Revision: 0
# Processed by: cddbd v1.5.2PL0 Copyright (c) Steve Scherf et al.
# Submitted via: ExactAudioCopy v0.95a5
#
DISCID=fe11db13
DTITLE=Natural Blues - Roots and Fruits
DYEAR=2007
DGENRE=Blues
TTITLE0=Stack O'Lee Blues
TTITLE1=In My Time Of Dying
TTITLE2=Walkin' Blues
TTITLE3=Keep Your Hands Off Her
TTITLE4=Shout Baby Shout
TTITLE5=Dark As A Dungeon
TTITLE6=My Babe
TTITLE7=(Ghost) Riders In The Sky: A Cowboy Legend
TTITLE8=Ride and Roll
TTITLE9=Sea Cruise
TTITLE10=The End Of The World
TTITLE11=Goin Up To The Country, Paint My Mailbox Blue
TTITLE12=Rivers Of Babylon
TTITLE13=I'm On Fire
TTITLE14=Rockin' In The Free World
TTITLE15=Who Were You Thinkin' Of (Last Night)?
TTITLE16=Lovin' In My Baby's Eyes
TTITLE17=John Law Burned Down The Liquor Sto'
TTITLE18=Long Way Home
EXTD=
EXTT0=
EXTT1=
EXTT2=
EXTT3=
EXTT4=
EXTT5=
EXTT6=
EXTT7=
EXTT8=
EXTT9=
EXTT10=
EXTT11=
EXTT12=
EXTT13=
EXTT14=
EXTT15=
EXTT16=
EXTT17=
EXTT18=
PLAYORDER=
